<?xml version="1.0" standalone="no"?><!DOCTYPE svg PUBLIC "-//W3C//DTD SVG 1.1//EN" "http://www.w3.org/Graphics/SVG/1.1/DTD/svg11.dtd"><svg t="1645075484539" class="icon" viewBox="0 0 1024 1024" version="1.1" xmlns="http://www.w3.org/2000/svg" p-id="30341" width="128" height="128" data-spm-anchor-id="a313x.7781069.0.i16" xmlns:xlink="http://www.w3.org/1999/xlink"><defs><style type="text/css"></style></defs><path d="M746.69356 845.684c-8.438 0-16.438-5.032-19.782-13.344l-42.684-105.594c-4.406-10.906 0.876-23.344 11.808-27.75 10.906-4.406 23.344 0.844 27.75 11.782l42.656 105.594c4.438 10.906-0.844 23.344-11.782 27.75a21.138 21.138 0 0 1-7.966 1.562z" fill="#2c2c2c" p-id="30342"></path><path d="M978.78356 814.278a21.32 21.32 0 0 0-18.812-11.25H579.94756L480.58956 765.34c-11.014-4.188-23.328 1.376-27.5 12.376a21.2 21.2 0 0 0-0.14 14.718l-35.172 12.5-23.296-8.906c-11-4.218-23.328 1.282-27.546 12.282a21.336 21.336 0 0 0 12.296 27.562l189.184 72.402c2.438 0.938 5 1.406 7.624 1.406h341.274c7.124 0 13.812-3.562 17.75-9.5l42.656-63.996a21.304 21.304 0 0 0 1.064-21.906z" fill="#2c2c2c" p-id="30343" data-spm-anchor-id="a313x.7781069.0.i9" class=""></path><path d="M502.15156 700.778a21.34 21.34 0 0 0-20.484-1.344l-184.106 86.062c-7.984 3.718-12.86 12-12.25 20.782a21.376 21.376 0 0 0 14.984 18.938c1.61 0.468 39.734 12.094 82.716 12.094 34.906 0 63.514-7.594 85.014-22.594 29.202-20.344 43.998-52.624 43.998-95.938a21.28 21.28 0 0 0-9.872-18z" fill="#707070" p-id="30344" data-spm-anchor-id="a313x.7781069.0.i11" class=""></path><path d="M891.00556 234.724c-39.844-47.498-112.906-75.28-167.156-90.248-70.558-19.438-155.964-30.156-240.416-30.156-81.388 0-158.576 9.688-223.246 28-73.966 20.938-128.668 51.936-162.56 92.124C40.83156 301.754 8.47356 418.752 1.42556 582.124c-5.172 119.714 5.516 218.84 5.968 222.996a21.312 21.312 0 0 0 21.202 19c1.312 0 2.61-0.124 3.906-0.344l94-17.532a21.472 21.472 0 0 0 8.046-3.282c42.03-28.438 94.06-61.094 105.108-64.5 14.296-3.156 189.98-29.782 306.508-47.188l329.84 15.718a21.13 21.13 0 0 0 8.688-1.376l82.964-32a21.314 21.314 0 0 0 13.624-18.808c0.628-12.026 13.848-295.992-90.274-420.084z" fill="#05540c" p-id="30345" data-spm-anchor-id="a313x.7781069.0.i8" class=""></path><path d="M503.47956 691.278c-116.514 17.406-292.182 44.032-306.48 47.188-11.062 3.406-63.076 36.062-105.124 64.5a21.442 21.442 0 0 1-8.032 3.282l-68.952 12.844c0.328 0.282 0.64 0.562 1 0.844a21.312 21.312 0 0 0 12.702 4.188c1.312 0 2.61-0.124 3.906-0.344l94-17.532a21.472 21.472 0 0 0 8.046-3.282c42.03-28.438 94.06-61.094 105.108-64.5 13.874-3.062 179.886-28.25 296.166-45.656l-32.34-1.532zM891.00556 234.724c-39.844-47.498-112.906-75.28-167.156-90.248-70.558-19.438-155.964-30.156-240.416-30.156-7.016 0-13.968 0.094-20.92 0.25 77.262 1.656 154.154 12.124 218.684 29.906 54.246 14.968 127.308 42.75 167.152 90.248 104.122 124.092 90.902 408.058 90.278 420.088a21.37 21.37 0 0 1-13.624 18.808l-82.464 31.782 33.468 1.594a21.13 21.13 0 0 0 8.688-1.376l82.964-32a21.314 21.314 0 0 0 13.624-18.808c0.624-12.03 13.844-295.996-90.278-420.088z" fill="#2b7d07" opacity=".2" p-id="30346" data-spm-anchor-id="a313x.7781069.0.i12" class="selected"></path><path d="M1019.84556 705.058l-42.124-63.184a21.27 21.27 0 0 0-17.75-9.5H209.68756c-41.562 0-88.044 27.376-138.168 81.372-35.484 38.218-59.842 75.938-60.858 77.532a21.3 21.3 0 0 0-1.328 20.656c18.218 38.406 74.17 57.876 166.294 57.876 34.17 0 60.312-2.782 61.406-2.906 0.688-0.094 1.376-0.188 2.046-0.344 42.656-8.876 72.326-36.688 101.03-63.594 35.078-32.876 68.218-63.938 125.544-63.938h537.004c11.782 0 21.344-9.532 21.344-21.312a21.12 21.12 0 0 0-4.156-12.658z" fill="#2b7d07" p-id="30347" data-spm-anchor-id="a313x.7781069.0.i7" class="selected"></path><path d="M234.73556 760.372c0 11.782-9.546 21.312-21.328 21.312s-21.328-9.532-21.328-21.312 9.546-21.344 21.328-21.344 21.328 9.562 21.328 21.344z" fill="#2c2c2c" p-id="30348"></path></svg>