<?xml version="1.0" standalone="no"?><!DOCTYPE svg PUBLIC "-//W3C//DTD SVG 1.1//EN" "http://www.w3.org/Graphics/SVG/1.1/DTD/svg11.dtd"><svg t="1645146756882" class="icon" viewBox="0 0 1024 1024" version="1.1" xmlns="http://www.w3.org/2000/svg" p-id="3054" xmlns:xlink="http://www.w3.org/1999/xlink" width="32" height="32"><defs><style type="text/css"></style></defs><path d="M657.04718202 131.9327599h-110.69390207v-18.53986537c0-38.71560122-21.26631616-74.70475164-55.07430596-93.78990717l-32.17211932-17.99457521c-16.35870474-9.26993269-37.07973073-3.27174094-46.34966343 13.0869638-9.26993269 16.35870474-3.27174094 37.07973073 13.0869638 46.34966343l32.17211933 17.9945752c12.54167363 7.08877205 20.17573584 20.17573584 20.17573583 34.35327995v18.53986537H366.95281798c-108.51274143 0-196.30445688 88.33700559-196.30445687 196.30445686v298.81900657c0 181.58162259 147.77363281 329.90054556 329.90054557 329.90054556h23.4474768c181.58162259 0 329.90054556-147.77363281 329.90054557-329.90054556V328.23721676c-0.54529015-107.96745129-88.33700559-196.30445688-196.84974703-196.30445686z m128.14318712 495.66875358c0 143.9566017-117.23738396 261.73927581-261.73927582 261.73927583h-23.4474768c-143.9566017 0-261.73927581-117.23738396-261.73927582-261.73927583V477.64672005H784.64507898v149.95479343z m0-218.11606318h-265.55630693V200.09402964h136.86782965c70.88772053 0 128.14318712 57.80075674 128.14318712 128.14318712v81.24823354z" fill="#ffffff" p-id="3055"></path></svg>